<?xml version="1.0" encoding="UTF-8" standalone="no"?><svg xmlns="http://www.w3.org/2000/svg" xmlns:xlink="http://www.w3.org/1999/xlink" contentScriptType="application/ecmascript" contentStyleType="text/css" height="525px" preserveAspectRatio="none" style="width:883px;height:525px;" version="1.1" viewBox="0 0 883 525" width="883px" zoomAndPan="magnify"><defs/><g><text fill="#000000" font-family="sans-serif" font-size="18" lengthAdjust="spacingAndGlyphs" textLength="369" x="257.25" y="30.6855">Flujo de envio de contenido CKEditor por URL</text><line style="stroke:#A80036;stroke-width:1.0;stroke-dasharray:5.0,5.0;" x1="32" x2="32" y1="122.25" y2="441.4141"/><line style="stroke:#A80036;stroke-width:1.0;stroke-dasharray:5.0,5.0;" x1="234.5" x2="234.5" y1="122.25" y2="441.4141"/><line style="stroke:#A80036;stroke-width:1.0;stroke-dasharray:5.0,5.0;" x1="435" x2="435" y1="122.25" y2="441.4141"/><line style="stroke:#A80036;stroke-width:1.0;stroke-dasharray:5.0,5.0;" x1="521" x2="521" y1="122.25" y2="441.4141"/><line style="stroke:#A80036;stroke-width:1.0;stroke-dasharray:5.0,5.0;" x1="677" x2="677" y1="122.25" y2="441.4141"/><text fill="#000000" font-family="sans-serif" font-size="14" lengthAdjust="spacingAndGlyphs" textLength="48" x="5" y="119.1738">Usuario</text><ellipse cx="32" cy="51.6406" fill="#FEFECE" rx="8" ry="8" style="stroke:#A80036;stroke-width:2.0;"/><path d="M32,59.6406 L32,86.6406 M19,67.6406 L45,67.6406 M32,86.6406 L19,101.6406 M32,86.6406 L45,101.6406 " fill="none" style="stroke:#A80036;stroke-width:2.0;"/><text fill="#000000" font-family="sans-serif" font-size="14" lengthAdjust="spacingAndGlyphs" textLength="48" x="5" y="454.9473">Usuario</text><ellipse cx="32" cy="468.0234" fill="#FEFECE" rx="8" ry="8" style="stroke:#A80036;stroke-width:2.0;"/><path d="M32,476.0234 L32,503.0234 M19,484.0234 L45,484.0234 M32,503.0234 L19,518.0234 M32,503.0234 L45,518.0234 " fill="none" style="stroke:#A80036;stroke-width:2.0;"/><rect fill="#FEFECE" height="31.6094" style="stroke:#A80036;stroke-width:1.5;" width="99" x="185.5" y="89.6406"/><text fill="#000000" font-family="sans-serif" font-size="14" lengthAdjust="spacingAndGlyphs" textLength="85" x="192.5" y="111.1738">Pagina HTML</text><rect fill="#FEFECE" height="31.6094" style="stroke:#A80036;stroke-width:1.5;" width="99" x="185.5" y="440.4141"/><text fill="#000000" font-family="sans-serif" font-size="14" lengthAdjust="spacingAndGlyphs" textLength="85" x="192.5" y="461.9473">Pagina HTML</text><rect fill="#FEFECE" height="31.6094" style="stroke:#A80036;stroke-width:1.5;" width="70" x="400" y="89.6406"/><text fill="#000000" font-family="sans-serif" font-size="14" lengthAdjust="spacingAndGlyphs" textLength="56" x="407" y="111.1738">CKEditor</text><rect fill="#FEFECE" height="31.6094" style="stroke:#A80036;stroke-width:1.5;" width="70" x="400" y="440.4141"/><text fill="#000000" font-family="sans-serif" font-size="14" lengthAdjust="spacingAndGlyphs" textLength="56" x="407" y="461.9473">CKEditor</text><rect fill="#FEFECE" height="31.6094" style="stroke:#A80036;stroke-width:1.5;" width="83" x="480" y="89.6406"/><text fill="#000000" font-family="sans-serif" font-size="14" lengthAdjust="spacingAndGlyphs" textLength="69" x="487" y="111.1738">Navegador</text><rect fill="#FEFECE" height="31.6094" style="stroke:#A80036;stroke-width:1.5;" width="83" x="480" y="440.4141"/><text fill="#000000" font-family="sans-serif" font-size="14" lengthAdjust="spacingAndGlyphs" textLength="69" x="487" y="461.9473">Navegador</text><rect fill="#FEFECE" height="49.2188" style="stroke:#A80036;stroke-width:1.5;" width="111" x="622" y="72.0313"/><text fill="#000000" font-family="sans-serif" font-size="14" lengthAdjust="spacingAndGlyphs" textLength="86" x="634.5" y="93.5645">Servidor Java</text><text fill="#000000" font-family="sans-serif" font-size="14" lengthAdjust="spacingAndGlyphs" textLength="97" x="629" y="111.1738">(Servlet doGet)</text><rect fill="#FEFECE" height="49.2188" style="stroke:#A80036;stroke-width:1.5;" width="111" x="622" y="440.4141"/><text fill="#000000" font-family="sans-serif" font-size="14" lengthAdjust="spacingAndGlyphs" textLength="86" x="634.5" y="461.9473">Servidor Java</text><text fill="#000000" font-family="sans-serif" font-size="14" lengthAdjust="spacingAndGlyphs" textLength="97" x="629" y="479.5566">(Servlet doGet)</text><polygon fill="#A80036" points="223,150.6016,233,154.6016,223,158.6016,227,154.6016" style="stroke:#A80036;stroke-width:1.0;"/><line style="stroke:#A80036;stroke-width:1.0;" x1="32" x2="229" y1="154.6016" y2="154.6016"/><text fill="#000000" font-family="sans-serif" font-size="13" lengthAdjust="spacingAndGlyphs" textLength="179" x="44" y="149.7451">Clic en "Ir a URL con mensaje"</text><polygon fill="#A80036" points="423,180.9531,433,184.9531,423,188.9531,427,184.9531" style="stroke:#A80036;stroke-width:1.0;"/><line style="stroke:#A80036;stroke-width:1.0;" x1="235" x2="429" y1="184.9531" y2="184.9531"/><text fill="#000000" font-family="sans-serif" font-size="13" lengthAdjust="spacingAndGlyphs" textLength="53" x="308.5" y="180.0967">getData()</text><polygon fill="#A80036" points="246,211.3047,236,215.3047,246,219.3047,242,215.3047" style="stroke:#A80036;stroke-width:1.0;"/><line style="stroke:#A80036;stroke-width:1.0;stroke-dasharray:2.0,2.0;" x1="240" x2="434" y1="215.3047" y2="215.3047"/><text fill="#000000" font-family="sans-serif" font-size="13" lengthAdjust="spacingAndGlyphs" textLength="108" x="281" y="210.4482">HTML del mensaje</text><line style="stroke:#A80036;stroke-width:1.0;" x1="235" x2="277" y1="245.6563" y2="245.6563"/><line style="stroke:#A80036;stroke-width:1.0;" x1="277" x2="277" y1="245.6563" y2="258.6563"/><line style="stroke:#A80036;stroke-width:1.0;" x1="236" x2="277" y1="258.6563" y2="258.6563"/><polygon fill="#A80036" points="246,254.6563,236,258.6563,246,262.6563,242,258.6563" style="stroke:#A80036;stroke-width:1.0;"/><text fill="#000000" font-family="sans-serif" font-size="13" lengthAdjust="spacingAndGlyphs" textLength="186" x="242" y="240.7998">encodeURIComponent(mensaje)</text><polygon fill="#A80036" points="509.5,285.0078,519.5,289.0078,509.5,293.0078,513.5,289.0078" style="stroke:#A80036;stroke-width:1.0;"/><line style="stroke:#A80036;stroke-width:1.0;" x1="235" x2="515.5" y1="289.0078" y2="289.0078"/><text fill="#000000" font-family="sans-serif" font-size="13" lengthAdjust="spacingAndGlyphs" textLength="174" x="291.25" y="284.1514">window.location.href = destino</text><polygon fill="#A80036" points="665.5,315.3594,675.5,319.3594,665.5,323.3594,669.5,319.3594" style="stroke:#A80036;stroke-width:1.0;"/><line style="stroke:#A80036;stroke-width:1.0;" x1="521.5" x2="671.5" y1="319.3594" y2="319.3594"/><text fill="#000000" font-family="sans-serif" font-size="13" lengthAdjust="spacingAndGlyphs" textLength="132" x="533.5" y="314.5029">GET /ruta?mensaje=...</text><line style="stroke:#A80036;stroke-width:1.0;" x1="677.5" x2="719.5" y1="349.7109" y2="349.7109"/><line style="stroke:#A80036;stroke-width:1.0;" x1="719.5" x2="719.5" y1="349.7109" y2="362.7109"/><line style="stroke:#A80036;stroke-width:1.0;" x1="678.5" x2="719.5" y1="362.7109" y2="362.7109"/><polygon fill="#A80036" points="688.5,358.7109,678.5,362.7109,688.5,366.7109,684.5,362.7109" style="stroke:#A80036;stroke-width:1.0;"/><text fill="#000000" font-family="sans-serif" font-size="13" lengthAdjust="spacingAndGlyphs" textLength="192" x="684.5" y="344.8545">request.getParameter("mensaje")</text><polygon fill="#A80036" points="532.5,389.0625,522.5,393.0625,532.5,397.0625,528.5,393.0625" style="stroke:#A80036;stroke-width:1.0;"/><line style="stroke:#A80036;stroke-width:1.0;stroke-dasharray:2.0,2.0;" x1="526.5" x2="676.5" y1="393.0625" y2="393.0625"/><text fill="#000000" font-family="sans-serif" font-size="13" lengthAdjust="spacingAndGlyphs" textLength="101" x="549" y="388.2061">Respuesta UTF-8</text><polygon fill="#A80036" points="43,419.4141,33,423.4141,43,427.4141,39,423.4141" style="stroke:#A80036;stroke-width:1.0;"/><line style="stroke:#A80036;stroke-width:1.0;stroke-dasharray:2.0,2.0;" x1="37" x2="520.5" y1="423.4141" y2="423.4141"/><text fill="#000000" font-family="sans-serif" font-size="13" lengthAdjust="spacingAndGlyphs" textLength="104" x="224.75" y="418.5576">Muestra resultado</text><!--MD5=[852f2f29a21f3b04fa7b0336ec3ca606]
@startuml
skinparam monochrome false
skinparam shadowing false
skinparam sequenceMessageAlign center

title Flujo de envio de contenido CKEditor por URL

actor Usuario
participant "Pagina HTML" as Pagina
participant "CKEditor" as Editor
participant "Navegador" as Browser
participant "Servidor Java\n(Servlet doGet)" as Servlet

Usuario -> Pagina: Clic en "Ir a URL con mensaje"
Pagina -> Editor: getData()
Editor - -> Pagina: HTML del mensaje
Pagina -> Pagina: encodeURIComponent(mensaje)
Pagina -> Browser: window.location.href = destino
Browser -> Servlet: GET /ruta?mensaje=...
Servlet -> Servlet: request.getParameter("mensaje")
Servlet - -> Browser: Respuesta UTF-8
Browser - -> Usuario: Muestra resultado

@enduml

PlantUML version 1.2020.22(Sun Dec 06 10:36:27 CET 2020)
(GPL source distribution)
Java Runtime: Java(TM) SE Runtime Environment
JVM: Java HotSpot(TM) Client VM
Default Encoding: Cp1252
Language: es
Country: ES
--></g></svg>